<?xml version="1.0" encoding="UTF-8"?>
<svg width="1em" height="1em" viewBox="0 0 25 25" version="1.1" xmlns="http://www.w3.org/2000/svg" xmlns:xlink="http://www.w3.org/1999/xlink">
    <g id="页面-1" stroke="none" stroke-width="1" fill="none" fill-rule="evenodd">
        <g id="首页备份-4" transform="translate(-322.000000, -591.000000)" fill="#FFFFFF" fill-rule="nonzero">
            <g id="编组-4" transform="translate(0.000000, 506.000000)">
                <g id="分组-16">
                    <g id="分组-15">
                        <g id="编组-3" transform="translate(316.000000, 79.000000)">
                            <g id="矩形">
                                <g>
                                    <path d="M23.1690688,7.03149269 C23.7510258,7.2856255 24.016725,7.96309425 23.7625922,8.54507862 C23.5088969,9.1266255 22.831893,9.39341847 22.249225,9.13841066 C19.8103539,8.07318019 17.1024203,8.02226612 14.6254047,8.99340675 C12.1475961,9.96509425 10.1967289,11.8433638 9.13185393,14.2822349 C6.93306096,19.3169575 9.24035393,25.2019341 14.2754867,27.4008911 C16.7131821,28.4655747 19.4219086,28.517063 21.8993071,27.5459224 C24.3767328,26.5743989 26.3276,24.6961567 27.3926391,22.2570942 C28.9423188,18.7095708 28.2825688,14.5456919 25.7111899,11.6489224 C25.2898227,11.1740161 25.3332719,10.4472739 25.8081508,10.0258794 C26.2834125,9.60470362 27.0094438,9.64790675 27.4311938,10.1224302 C30.5949477,13.6873716 31.4070571,18.8115357 29.4995844,23.1773208 C28.1890258,26.1788716 25.7879438,28.4906763 22.7387328,29.6863364 C21.2877914,30.2553599 19.7721547,30.5391881 18.259143,30.5391881 C16.5923227,30.5391881 14.9284828,30.1950669 13.3552328,29.5079732 C7.15831877,26.8015708 4.31847893,19.5586763 7.02474455,13.3621724 C8.33511174,10.3604849 10.7363852,8.04865284 13.7859789,6.85299269 C16.8352172,5.65694972 20.1677367,5.72074269 23.1690688,7.03149269 Z M22.5662485,12.0070982 C23.0153149,12.4559732 23.0153149,13.1838638 22.5662485,13.6329575 L19.888,16.311 L22.3692914,16.3113052 C23.0043774,16.3113052 23.5189321,16.8260786 23.5189321,17.4609458 C23.5189321,18.0958403 23.0044047,18.6106138 22.3693188,18.6106138 L19.412,18.61 L19.412,20.143 L22.3692914,20.1434497 C23.0043774,20.1434497 23.5189321,20.6581958 23.5189321,21.2930903 C23.5189321,21.9279302 23.0044047,22.4427036 22.3693188,22.4427036 L19.412,22.442 L19.4121742,24.4852271 C19.4121742,25.1201489 18.8975922,25.634895 18.2625063,25.634895 C17.6274477,25.634895 17.112893,25.1201763 17.112893,24.4852544 L17.112,22.442 L14.1557211,22.4427036 C13.5206625,22.4427036 13.0060805,21.9279575 13.0060805,21.2930903 C13.0060805,20.6581958 13.5206625,20.1434497 14.1557211,20.1434497 L17.112,20.143 L17.112,18.61 L14.1557211,18.6106138 C13.5206625,18.6106138 13.0060805,18.0958403 13.0060805,17.4609458 C13.0060805,16.8260786 13.5206625,16.3113052 14.1557211,16.3113052 L16.636,16.311 L13.9580805,13.6335044 C13.5090141,13.184438 13.5090141,12.4565474 13.9580805,12.007645 C14.4064086,11.5585786 15.1346821,11.55877 15.5837758,12.007481 L18.262,14.686 L20.9405805,12.0072896 C21.3888813,11.5581958 22.1171547,11.5584419 22.5662485,12.0070982 Z" id="形状结合"></path>
                                </g>
                            </g>
                        </g>
                    </g>
                </g>
            </g>
        </g>
    </g>
</svg>
