<?xml version="1.0" encoding="UTF-8"?>
<svg width="1em" height="1em" viewBox="0 0 24 24" version="1.1" xmlns="http://www.w3.org/2000/svg" xmlns:xlink="http://www.w3.org/1999/xlink">
    <g id="页面-1" stroke="none" stroke-width="1" fill="none" fill-rule="evenodd">
        <g id="首页备份-15" transform="translate(-637.000000, -684.000000)" fill="#FF6C31">
            <g id="编组-5" transform="translate(30.000000, 352.000000)">
                <g id="分组-15" transform="translate(0.000000, 5.000000)">
                    <g id="编组-3" transform="translate(382.000000, 311.000000)">
                        <path d="M231.342857,25.4285714 C233.571429,28.6857143 236.314286,31.6 239.571429,33.6571429 C240.428571,32.9714286 241.457143,32.1142857 242.485714,31.4285714 C244.542857,32.6285714 246.6,33.4857143 249,34.1714286 L246.6,40 C246.428571,40 246.257143,40 246.257143,39.8285714 L246.257143,40 C235.971429,37.0857143 227.914286,29.0285714 225,18.9142857 L225.171429,18.9142857 C225,18.7428572 225,18.5714286 225,18.4 L231,16 C231.685714,18.4 232.542857,20.4571428 233.742857,22.5142857 C232.885714,23.5428572 232.028571,24.4 231.342857,25.4285714 Z" id="Path" transform="translate(237.000000, 28.000000) scale(-1, 1) translate(-237.000000, -28.000000) "></path>
                    </g>
                </g>
            </g>
        </g>
    </g>
</svg>
