<?xml version="1.0" encoding="UTF-8"?>
<svg width=".83em" height="1em" viewBox="0 0 26 31" version="1.1" xmlns="http://www.w3.org/2000/svg" xmlns:xlink="http://www.w3.org/1999/xlink">
    <g id="页面-1" stroke="none" stroke-width="1" fill="none" fill-rule="evenodd">
        <g id="首页备份-4" transform="translate(-499.000000, -539.000000)">
            <g id="编组-4" transform="translate(0.000000, 506.000000)">
                <g id="分组-16">
                    <g id="分组-15">
                        <g id="路径" transform="translate(499.000000, 33.875000)">
                            <path d="M26,1.22818073 L26,15.9847907 C26,17.0875716 25.7735736,18.1755995 25.3207207,19.2636275 C24.8678679,20.344279 24.3018018,21.3069072 23.6342342,22.1441355 C22.9627628,22.985052 22.1624625,23.8001509 21.2372372,24.5894322 C20.3081081,25.38609 19.4492492,26.042595 18.6684685,26.5663238 C17.8837838,27.0900525 17.0600601,27.5879636 16.2129129,28.0526806 C15.357958,28.5210859 14.7528529,28.8345855 14.3936937,29.0005558 C14.0345345,29.1665262 13.7495495,29.2956143 13.5309309,29.3841318 C13.366967,29.4615846 13.1951952,29.5021552 13,29.5021552 C12.8126126,29.5021552 12.633033,29.4615846 12.4690691,29.3841318 C12.2504505,29.2956143 11.9654655,29.1665262 11.6063063,29.0005558 C11.2471471,28.8345855 10.642042,28.5173976 9.78708709,28.0526806 C8.93213213,27.5842754 8.11231231,27.0863642 7.33153153,26.5663238 C6.54684685,26.042595 5.69189189,25.3824018 4.76276276,24.5894322 C3.83363363,23.7927745 3.03723724,22.9776755 2.36576577,22.1441355 C1.69429429,21.3032189 1.13603604,20.3479673 0.679279279,19.2636275 C0.226426426,18.182976 0,17.0912598 0,15.9847907 L0,1.22818073 C0,0.896239993 0.128828829,0.60486979 0.386486486,0.365134812 C0.644144144,0.121711604 0.944744745,0 1.3,0 L24.7234234,0 C25.0747748,0 25.3831832,0.121711604 25.6369369,0.365134812 C25.8711712,0.60855802 26,0.899928224 26,1.22818073 L26,1.22818073 Z" fill="#25BAAA" fill-rule="nonzero"></path>
                            <text id="保" font-family="PingFangSC-Regular, PingFang SC" font-size="17.3333333" font-weight="normal" fill="#FFFFFF">
                                <tspan x="4.33333333" y="18.1034483">保</tspan>
                            </text>
                        </g>
                    </g>
                </g>
            </g>
        </g>
    </g>
</svg>
